<svg xmlns="http://www.w3.org/2000/svg" fill="none" viewBox="0 0 128 128">
  <!-- Background circle -->
  <circle cx="64" cy="64" r="60" fill="url(#gradient)" stroke="url(#strokeGradient)" stroke-width="2"/>
  
  <!-- Globe grid lines -->
  <path d="M64 8 A56 56 0 0 1 64 120" stroke="currentColor" stroke-width="1.5" opacity="0.3"/>
  <path d="M64 8 A56 56 0 0 0 64 120" stroke="currentColor" stroke-width="1.5" opacity="0.3"/>
  <ellipse cx="64" cy="64" rx="56" ry="16" stroke="currentColor" stroke-width="1" opacity="0.2"/>
  <ellipse cx="64" cy="64" rx="56" ry="8" stroke="currentColor" stroke-width="1" opacity="0.2"/>
  
  <!-- Compass needle -->
  <g transform="translate(64, 64)">
    <!-- North needle -->
    <path d="M0 -40 L-3 0 L0 8 L3 0 Z" fill="#3B82F6"/>
    <!-- South needle -->
    <path d="M0 40 L-3 0 L0 -8 L3 0 Z" fill="#EF4444"/>
    <!-- Center dot -->
    <circle cx="0" cy="0" r="4" fill="currentColor"/>
  </g>
  
  <!-- AI circuit pattern -->
  <g opacity="0.6">
    <path d="M20 20 L35 20 L35 25 L40 25" stroke="currentColor" stroke-width="1.5" fill="none"/>
    <path d="M88 20 L73 20 L73 25 L68 25" stroke="currentColor" stroke-width="1.5" fill="none"/>
    <path d="M20 108 L35 108 L35 103 L40 103" stroke="currentColor" stroke-width="1.5" fill="none"/>
    <path d="M88 108 L73 108 L73 103 L68 103" stroke="currentColor" stroke-width="1.5" fill="none"/>
    
    <!-- Circuit nodes -->
    <circle cx="20" cy="20" r="2" fill="currentColor"/>
    <circle cx="108" cy="20" r="2" fill="currentColor"/>
    <circle cx="20" cy="108" r="2" fill="currentColor"/>
    <circle cx="108" cy="108" r="2" fill="currentColor"/>
  </g>
  
  <!-- Gradients -->
  <defs>
    <linearGradient id="gradient" x1="0%" y1="0%" x2="100%" y2="100%">
      <stop offset="0%" style="stop-color:#3B82F6;stop-opacity:1" />
      <stop offset="50%" style="stop-color:#8B5CF6;stop-opacity:1" />
      <stop offset="100%" style="stop-color:#06B6D4;stop-opacity:1" />
    </linearGradient>
    <linearGradient id="strokeGradient" x1="0%" y1="0%" x2="100%" y2="100%">
      <stop offset="0%" style="stop-color:#1E40AF;stop-opacity:1" />
      <stop offset="100%" style="stop-color:#0891B2;stop-opacity:1" />
    </linearGradient>
  </defs>
  
  <style>
    path, circle, ellipse { 
      color: #FFFFFF; 
    }
    @media (prefers-color-scheme: dark) {
      path, circle, ellipse { 
        color: #FFFFFF; 
      }
    }
    @media (prefers-color-scheme: light) {
      path, circle, ellipse { 
        color: #1F2937; 
      }
    }
  </style>
</svg>